<?xml version="1.0" encoding="UTF-8" standalone="no"?>
<!-- Created with Inkscape (http://www.inkscape.org/) -->

<svg
   width="100%"
   height="297mm"
   viewBox="0 0 210 297"
   version="1.1"
   id="svg5"
   style="background-color: #0d1117"
   xml:space="preserve"
   sodipodi:docname="profile.svg"
   inkscape:version="1.2.1 (9c6d41e410, 2022-07-14, custom)"
   xmlns:inkscape="http://www.inkscape.org/namespaces/inkscape"
   xmlns:sodipodi="http://sodipodi.sourceforge.net/DTD/sodipodi-0.dtd"
   xmlns="http://www.w3.org/2000/svg"
   xmlns:svg="http://www.w3.org/2000/svg"><sodipodi:namedview
     id="namedview106"
     pagecolor="#0d1117"
     bordercolor="#000000"
     borderopacity="0.25"
     inkscape:showpageshadow="2"
     inkscape:pageopacity="0"
     inkscape:pagecheckerboard="0"
     inkscape:deskcolor="#d1d1d1"
     inkscape:document-units="mm"
     showgrid="false"
     inkscape:zoom="12.414927"
     inkscape:cx="62.183209"
     inkscape:cy="579.02072"
     inkscape:window-width="1890"
     inkscape:window-height="1022"
     inkscape:window-x="12"
     inkscape:window-y="40"
     inkscape:window-maximized="0"
     inkscape:current-layer="layer1" /><defs
     id="defs2"><rect
       x="213.81092"
       y="606.33235"
       width="235.19693"
       height="53.043374"
       id="rect4128" /><rect
       x="100.6156"
       y="465.88207"
       width="63.15262"
       height="19.711136"
       id="rect3194" /><rect
       x="77.418833"
       y="350.49038"
       width="126.45963"
       height="28.452077"
       id="rect4618" /><rect
       x="306.36935"
       y="270.47101"
       width="247.9303"
       height="79.076815"
       id="rect4610" /><rect
       x="236.18085"
       y="158.95737"
       width="436.75387"
       height="134.44839"
       id="rect2942" /><rect
       x="299.74376"
       y="126.27887"
       width="146.79174"
       height="14.387076"
       id="rect1106" /><rect
       x="734.38583"
       y="29.4469"
       width="60.989998"
       height="14.457386"
       id="rect1100" /><rect
       x="643.31379"
       y="32.434791"
       width="71.79543"
       height="14.170964"
       id="rect1094" /><rect
       x="555.16776"
       y="31.538398"
       width="61.064419"
       height="15.088659"
       id="rect1088" /><rect
       x="471.3815"
       y="28.801605"
       width="72.340304"
       height="13.752287"
       id="rect1082" /><rect
       x="491.76193"
       y="24.772189"
       width="87.47668"
       height="18.243931"
       id="rect1076" /><rect
       x="486.70832"
       y="31.040043"
       width="90.758941"
       height="16.372404"
       id="rect1070" /><rect
       x="55.028283"
       y="24.233445"
       width="147.7673"
       height="15.379209"
       id="rect235" /><rect
       x="77.418831"
       y="350.49039"
       width="126.45963"
       height="28.452078"
       id="rect4618-6" /></defs><g
     id="layer1"><g
       style="fill:none;stroke:#f0f6fc;stroke-width:2;stroke-linecap:round;stroke-linejoin:round"
       id="g21"
       transform="matrix(0.26458333,0,0,0.26458333,5.063308,6.7296587)"><path
         d="m 4,4 h 16 c 1.1,0 2,0.9 2,2 v 12 c 0,1.1 -0.9,2 -2,2 H 4 C 2.9,20 2,19.1 2,18 V 6 C 2,4.9 2.9,4 4,4 Z"
         id="path9" /><polyline
         points="22,6 12,13 2,6"
         id="polyline11" /></g><text
       xml:space="preserve"
       transform="matrix(0.26458617,0,0,0.26458333,-1.7262728,1.4507895)"
       id="text233"
       style="white-space:pre;shape-inside:url(#rect235);display:inline;fill:#000000;stroke-width:1.00157;stroke-dasharray:none"><tspan
         x="55.027344"
         y="35.152877"
         id="tspan6995"><tspan
           style="font-size:12px;font-family:'Source Code Pro';-inkscape-font-specification:'Source Code Pro, Normal';fill:#f0f6fc"
           id="tspan6993">tokayakiii@gmail.com</tspan></tspan></text><text
       xml:space="preserve"
       transform="scale(0.26458333)"
       id="text1068"
       style="font-style:normal;font-variant:normal;font-weight:normal;font-stretch:normal;font-size:12px;font-family:'Source Code Pro';-inkscape-font-specification:'Source Code Pro, Normal';font-variant-ligatures:normal;font-variant-caps:normal;font-variant-numeric:normal;font-variant-east-asian:normal;white-space:pre;shape-inside:url(#rect1070);display:inline;fill:#f0f6fc;fill-opacity:1;stroke-width:1.00157;stroke-dasharray:none" /><text
       xml:space="preserve"
       transform="scale(0.26458333)"
       id="text1074"
       style="font-style:normal;font-variant:normal;font-weight:normal;font-stretch:normal;font-size:12px;font-family:'Source Code Pro';-inkscape-font-specification:'Source Code Pro, Normal';font-variant-ligatures:normal;font-variant-caps:normal;font-variant-numeric:normal;font-variant-east-asian:normal;white-space:pre;shape-inside:url(#rect1076);display:inline;fill:#f0f6fc;fill-opacity:1;stroke-width:1.00157;stroke-dasharray:none" /><text
       xml:space="preserve"
       transform="matrix(0.26458333,0,0,0.26458333,2.3120894,0.3783684)"
       id="text1080"
       style="font-style:normal;font-variant:normal;font-weight:normal;font-stretch:normal;font-size:12px;font-family:'Source Code Pro';-inkscape-font-specification:'Source Code Pro, Normal';font-variant-ligatures:normal;font-variant-caps:normal;font-variant-numeric:normal;font-variant-east-asian:normal;white-space:pre;shape-inside:url(#rect1082);display:inline;fill:#f0f6fc;fill-opacity:1;stroke-width:1.00157;stroke-dasharray:none"><tspan
         x="471.38086"
         y="39.300781"
         id="tspan6997">Portfolio</tspan></text><text
       xml:space="preserve"
       transform="matrix(0.26458333,0,0,0.26458333,2.7879601,-0.37153517)"
       id="text1086"
       style="font-style:normal;font-variant:normal;font-weight:normal;font-stretch:normal;font-size:12px;font-family:'Source Code Pro';-inkscape-font-specification:'Source Code Pro, Normal';font-variant-ligatures:normal;font-variant-caps:normal;font-variant-numeric:normal;font-variant-east-asian:normal;white-space:pre;shape-inside:url(#rect1088);display:inline;fill:#f0f6fc;fill-opacity:1;stroke-width:1.00157;stroke-dasharray:none"><tspan
         x="555.16797"
         y="42.039062"
         id="tspan6999">Projects</tspan></text><text
       xml:space="preserve"
       transform="matrix(0.26458333,0,0,0.26458333,1.8151244,-0.79922999)"
       id="text1092"
       style="font-style:normal;font-variant:normal;font-weight:normal;font-stretch:normal;font-size:12px;font-family:'Source Code Pro';-inkscape-font-specification:'Source Code Pro, Normal';font-variant-ligatures:normal;font-variant-caps:normal;font-variant-numeric:normal;font-variant-east-asian:normal;white-space:pre;shape-inside:url(#rect1094);display:inline;fill:#f0f6fc;fill-opacity:1;stroke-width:1.00157;stroke-dasharray:none"><tspan
         x="643.31445"
         y="42.935547"
         id="tspan7001">Resume</tspan></text><text
       xml:space="preserve"
       transform="matrix(0.26458333,0,0,0.26458333,-4.5128586,0.02951941)"
       id="text1098"
       style="font-style:normal;font-variant:normal;font-weight:normal;font-stretch:normal;font-size:12px;font-family:'Source Code Pro';-inkscape-font-specification:'Source Code Pro, Normal';font-variant-ligatures:normal;font-variant-caps:normal;font-variant-numeric:normal;font-variant-east-asian:normal;white-space:pre;shape-inside:url(#rect1100);display:inline;fill:#f0f6fc;fill-opacity:1;stroke-width:1.00157;stroke-dasharray:none"><tspan
         x="734.38672"
         y="39.947266"
         id="tspan7003">Contact</tspan></text><text
       xml:space="preserve"
       transform="matrix(0.26319519,0,0,0.26458333,7.3813833,-0.17072187)"
       id="text1104"
       style="font-style:normal;font-variant:normal;font-weight:normal;font-stretch:normal;font-size:12px;font-family:'Source Code Pro';-inkscape-font-specification:'Source Code Pro, Normal';font-variant-ligatures:normal;font-variant-caps:normal;font-variant-numeric:normal;font-variant-east-asian:normal;white-space:pre;shape-inside:url(#rect1106);display:inline;fill:#f0f6fc;fill-opacity:1;stroke-width:1.00157;stroke-dasharray:none"><tspan
         x="299.74414"
         y="136.7793"
         id="tspan7007"><tspan
           style="font-weight:600;-inkscape-font-specification:'Source Code Pro, Semi-Bold'"
           id="tspan7005">Hi, I am tokayakiii!</tspan></tspan></text><text
       xml:space="preserve"
       transform="matrix(0.26458333,0,0,0.26458333,-12.112396,-0.33885411)"
       id="text2940"
       style="font-weight:600;font-size:26.6667px;font-family:'Source Code Pro';-inkscape-font-specification:'Source Code Pro, Semi-Bold';white-space:pre;shape-inside:url(#rect2942);display:inline;fill:#f0f6fc;stroke-width:1.00157;stroke-dasharray:none"
       x="151.92029"
       y="0"><tspan
         x="450.55818"
         y="182.29039"
         id="tspan7011"><tspan
           style="font-weight:bold;-inkscape-font-specification:'Source Code Pro, Bold';text-align:center;text-anchor:middle"
           id="tspan7009">Building beautiful websites </tspan></tspan><tspan
         x="450.55821"
         y="215.62377"
         id="tspan7015"><tspan
           style="font-weight:bold;-inkscape-font-specification:'Source Code Pro, Bold';text-align:center;text-anchor:middle"
           id="tspan7013">with secure and blazingly </tspan></tspan><tspan
         x="450.5584"
         y="248.95714"
         id="tspan7019"><tspan
           style="font-weight:bold;-inkscape-font-specification:'Source Code Pro, Bold';text-align:center;text-anchor:middle"
           id="tspan7017">fast backend.</tspan></tspan></text><text
       xml:space="preserve"
       transform="matrix(0.26458333,0,0,0.26458333,-8.5389093,-0.2575824)"
       id="text4608"
       style="font-style:normal;font-variant:normal;font-weight:900;font-stretch:normal;font-size:10.6667px;line-height:1.5;font-family:'Source Code Pro';-inkscape-font-specification:'Source Code Pro, Heavy';font-variant-ligatures:normal;font-variant-caps:normal;font-variant-numeric:normal;font-variant-east-asian:normal;text-align:center;white-space:pre;shape-inside:url(#rect4610);display:inline;fill:#f0f6fc;stroke-width:1.00157;stroke-dasharray:none"><tspan
         x="308.73352"
         y="281.1374"
         id="tspan7027"><tspan
           style="font-weight:500;-inkscape-font-specification:'Source Code Pro, Medium'"
           id="tspan7021">a </tspan><tspan
           style="font-weight:bold;-inkscape-font-specification:'Source Code Pro, Bold'"
           id="tspan7023">fullstack developer</tspan><tspan
           style="font-weight:500;-inkscape-font-specification:'Source Code Pro, Medium'"
           id="tspan7025">. I love building </tspan></tspan><tspan
         x="308.73352"
         y="297.13746"
         id="tspan7031"><tspan
           style="font-weight:500;-inkscape-font-specification:'Source Code Pro, Medium'"
           id="tspan7029">websites using VueJS and backend using </tspan></tspan><tspan
         x="414.33392"
         y="313.13753"
         id="tspan7035"><tspan
           style="font-weight:500;-inkscape-font-specification:'Source Code Pro, Medium'"
           id="tspan7033">Rust.</tspan></tspan></text><text
       xml:space="preserve"
       transform="matrix(0.26458333,0,0,0.26458333,-0.65427367,3.2450201)"
       id="text4616"
       style="font-style:normal;font-variant:normal;font-weight:bold;font-stretch:normal;font-size:16px;font-family:'Source Code Pro';-inkscape-font-specification:'Source Code Pro, Bold';font-variant-ligatures:normal;font-variant-caps:normal;font-variant-numeric:normal;font-variant-east-asian:normal;text-align:center;white-space:pre;shape-inside:url(#rect4618);display:inline;fill:#f0f6fc;stroke-width:1.00157;stroke-dasharray:none"
       x="-18.613403"
       y="0"><tspan
         x="77.417969"
         y="364.49023"
         id="tspan7039"><tspan
           style="font-weight:900;-inkscape-font-specification:'Source Code Pro, Heavy';text-align:start"
           id="tspan7037">- Skills
</tspan></tspan><tspan
         x="77.417969"
         y="384.49023"
         id="tspan7043"><tspan
           style="font-weight:900;-inkscape-font-specification:'Source Code Pro, Heavy';text-align:start"
           id="tspan7041">
</tspan></tspan></text><text
       xml:space="preserve"
       transform="matrix(0.26458333,0,0,0.26458333,-1.0321101,45.613215)"
       id="text4616-0"
       style="font-style:normal;font-variant:normal;font-weight:bold;font-stretch:normal;font-size:16px;font-family:'Source Code Pro';-inkscape-font-specification:'Source Code Pro, Bold';font-variant-ligatures:normal;font-variant-caps:normal;font-variant-numeric:normal;font-variant-east-asian:normal;text-align:center;white-space:pre;shape-inside:url(#rect4618-6);display:inline;fill:#f0f6fc;stroke-width:1.00157;stroke-dasharray:none"
       x="-18.613403"
       y="0"><tspan
         x="77.417969"
         y="364.49023"
         id="tspan7047"><tspan
           style="font-weight:900;-inkscape-font-specification:'Source Code Pro, Heavy';text-align:start"
           id="tspan7045">- Projects
</tspan></tspan><tspan
         x="77.417969"
         y="384.49023"
         id="tspan7051"><tspan
           style="font-weight:900;-inkscape-font-specification:'Source Code Pro, Heavy';text-align:start"
           id="tspan7049">
</tspan></tspan></text><rect
       style="fill:#313244;fill-opacity:0.49485168;stroke-width:0.334034"
       id="rect493"
       width="23"
       height="23"
       x="24"
       y="104"
       ry="4.9701743" /><rect
       style="fill:#313244;fill-opacity:0.49000001;stroke-width:0.334034"
       id="rect493-3"
       width="22.321348"
       height="22.966618"
       x="49.746006"
       y="104.96042"
       ry="4.9701743" /><rect
       style="fill:#313244;fill-opacity:0.49000001;stroke-width:0.334034"
       id="rect493-3-3"
       width="22.321348"
       height="22.966618"
       x="75.311821"
       y="105.06809"
       ry="4.9701743" /><rect
       style="fill:#313244;fill-opacity:0.49000001;stroke-width:0.334034"
       id="rect493-3-3-5"
       width="22.321348"
       height="22.966618"
       x="100.12423"
       y="105.06946"
       ry="4.9701743" /><rect
       style="fill:#313244;fill-opacity:0.49000001;stroke-width:0.334034"
       id="rect493-3-3-5-1"
       width="22.321348"
       height="22.966618"
       x="125.75809"
       y="105.12587"
       ry="4.9701743" /><rect
       style="fill:#313244;fill-opacity:0.49000001;stroke-width:0.334034"
       id="rect493-3-3-5-1-0"
       width="22"
       height="22"
       x="151"
       y="105"
       ry="4.9701743" /><path
       d="m 32.436827,109.08428 0.515257,5.52799 2.312007,0.72904 2.326771,-0.72904 0.515256,-5.52799 z m 4.550197,1.78633 h -2.713582 l 0.06052,0.68994 h 2.592521 l -0.200788,2.07265 -1.445374,0.37711 v 0.004 h -0.01624 l -1.457186,-0.38129 -0.08859,-1.05867 h 0.704233 l 0.05168,0.53213 0.789862,0.20252 0.792814,-0.20252 0.08859,-0.86873 h -2.464077 l -0.188976,-2.03354 h 3.559547 z"
       id="path1778"
       style="fill:#fab387;fill-opacity:0.99772;stroke-width:0.0143597" /><text
       xml:space="preserve"
       style="font-weight:900;font-size:4.23333px;font-family:'Source Code Pro';-inkscape-font-specification:'Source Code Pro, Heavy';fill:#f0f6fc;fill-opacity:0.99772;stroke-width:0.264999"
       x="29.774122"
       y="122.42127"
       id="text2031"><tspan
         id="tspan2029"
         style="stroke-width:0.265"
         x="30"
         y="122.42127">HTML</tspan></text><text
       xml:space="preserve"
       style="font-weight:900;font-size:4.23333px;font-family:'Source Code Pro';-inkscape-font-specification:'Source Code Pro, Heavy';fill:#f0f6fc;fill-opacity:0.99772;stroke-width:0.264999"
       x="56.111629"
       y="122.37048"
       id="text2031-6"><tspan
         id="tspan2029-0"
         style="stroke-width:0.265"
         x="56.111629"
         y="122.37048">SASS</tspan></text><text
       xml:space="preserve"
       style="font-weight:900;font-size:4.23333px;font-family:'Source Code Pro';-inkscape-font-specification:'Source Code Pro, Heavy';fill:#f0f6fc;fill-opacity:0.99772;stroke-width:0.264999"
       x="80.238083"
       y="121.74394"
       id="text2031-6-6"><tspan
         id="tspan2029-0-7"
         style="stroke-width:0.265"
         x="80.238083"
         y="121.74394">JS/TS</tspan></text><text
       xml:space="preserve"
       style="font-weight:900;font-size:4.23333px;font-family:'Source Code Pro';-inkscape-font-specification:'Source Code Pro, Heavy';fill:#f0f6fc;fill-opacity:0.99772;stroke-width:0.264999"
       x="104.34791"
       y="122.37048"
       id="text2031-6-6-2"><tspan
         id="tspan2029-0-7-9"
         style="stroke-width:0.265"
         x="104.34791"
         y="122.37048">KOTLIN</tspan></text><text
       xml:space="preserve"
       style="font-weight:900;font-size:4.23333px;font-family:'Source Code Pro';-inkscape-font-specification:'Source Code Pro, Heavy';fill:#f0f6fc;fill-opacity:0.99772;stroke-width:0.264999"
       x="132.06656"
       y="122.37048"
       id="text2031-6-6-2-2"><tspan
         id="tspan2029-0-7-9-7"
         style="stroke-width:0.265"
         x="132.06656"
         y="122.37048">RUST</tspan></text><text
       xml:space="preserve"
       style="font-weight:900;font-size:4.23333px;font-family:'Source Code Pro';-inkscape-font-specification:'Source Code Pro, Heavy';fill:#f0f6fc;fill-opacity:0.99772;stroke-width:0.264999"
       x="155.31325"
       y="122.37048"
       id="text2031-6-6-2-2-9"><tspan
         id="tspan2029-0-7-9-7-3"
         style="stroke-width:0.265"
         x="155.31325"
         y="122.37048">PYTHON</tspan></text><path
       d="m 60.695806,113.51658 c -0.0038,0.007 -0.0076,0.0128 0,0 z m 3.143588,-1.02747 a 1.6550123,1.5490069 0 0 0 -0.731858,0.15944 c -0.07444,-0.14054 -0.15142,-0.26337 -0.16404,-0.35549 -0.01514,-0.10747 -0.03154,-0.17124 -0.01382,-0.29878 0.01766,-0.12756 0.09716,-0.30825 0.09589,-0.32125 -0.0013,-0.013 -0.01768,-0.0779 -0.180442,-0.0791 -0.162774,-0.001 -0.302838,0.0295 -0.319115,0.0697 a 1.5499021,1.4506291 0 0 0 -0.06688,0.22557 c -0.02902,0.13818 -0.325426,0.63184 -0.493249,0.88929 -0.05553,-0.10038 -0.102204,-0.18895 -0.112303,-0.25982 -0.01514,-0.10747 -0.03154,-0.17124 -0.01382,-0.29879 0.01766,-0.12755 0.09716,-0.30824 0.09589,-0.32124 -0.0013,-0.013 -0.01766,-0.0779 -0.180313,-0.0791 -0.16265,-0.001 -0.30284,0.0295 -0.319244,0.0697 -0.01641,0.0401 -0.03407,0.13463 -0.06688,0.22557 -0.03281,0.0909 -0.427634,0.91292 -0.530978,1.12668 -0.05299,0.10865 -0.09841,0.19605 -0.131234,0.2551 -0.005,0.009 -0.0088,0.0154 -0.0114,0.02 0.0038,-0.006 0.0063,-0.0118 0.0063,-0.009 -0.02776,0.0508 -0.04416,0.0791 -0.04416,0.0791 v 10e-4 c -0.02145,0.0378 -0.04543,0.072 -0.05678,0.072 -0.0076,0 -0.02397,-0.0992 0.0038,-0.23502 0.0593,-0.28581 0.199368,-0.72986 0.198108,-0.74522 -0.0013,-0.008 0.02649,-0.085 -0.09212,-0.12637 -0.114824,-0.039 -0.156467,0.026 -0.16656,0.026 -0.01011,0 -0.01766,0.0236 -0.01766,0.0236 0,0 0.127445,-0.50074 -0.244668,-0.50074 -0.232176,0 -0.555204,0.23855 -0.713942,0.45468 -0.09968,0.0508 -0.315457,0.16061 -0.542586,0.27754 -0.08706,0.0449 -0.176655,0.0909 -0.261197,0.13464 -0.0063,-0.006 -0.0114,-0.0118 -0.01766,-0.0177 -0.451607,-0.45114 -1.285422,-0.77002 -1.250092,-1.37587 0.01268,-0.22085 0.09464,-0.80072 1.603403,-1.5046 1.236592,-0.57633 2.225233,-0.41808 2.395453,-0.0662 0.244795,0.50193 -0.52858,1.43611 -1.812741,1.57074 -0.489462,0.0508 -0.746748,-0.12637 -0.811102,-0.1925 -0.06688,-0.0697 -0.07696,-0.0732 -0.102204,-0.0602 -0.04164,0.0212 -0.01514,0.0827 0,0.11929 0.03786,0.0933 0.195582,0.25864 0.464226,0.34132 0.235961,0.072 0.80984,0.11218 1.503719,-0.13937 0.779556,-0.28107 1.386369,-1.06408 1.208452,-1.71954 -0.181199,-0.6661 -1.36126,-0.88458 -2.477094,-0.51375 -0.664856,0.22086 -1.383844,0.56807 -1.901067,1.0204 -0.614385,0.53854 -0.71268,1.00739 -0.672303,1.20345 0.143723,0.69561 1.168075,1.14911 1.578042,1.48451 -0.0202,0.0106 -0.03911,0.0201 -0.05679,0.0295 -0.205553,0.0957 -0.986498,0.47831 -1.181953,0.88222 -0.220821,0.45822 0.03659,0.78655 0.20555,0.83142 0.527318,0.137 1.067254,-0.10984 1.357347,-0.51491 0.290095,-0.40509 0.254889,-0.93418 0.121135,-1.1751 -0.0013,-0.004 -0.0038,-0.006 -0.005,-0.009 0.05299,-0.0295 0.107261,-0.059 0.161514,-0.0886 0.104612,-0.0579 0.206813,-0.11102 0.296404,-0.15707 -0.05047,0.12754 -0.08706,0.28108 -0.105993,0.5031 -0.02271,0.25982 0.09212,0.59641 0.241009,0.72868 0.06561,0.0579 0.144985,0.0591 0.194195,0.0591 0.174132,0 0.252365,-0.13464 0.339305,-0.29525 0.107261,-0.19605 0.201893,-0.42398 0.201893,-0.42398 0,0 -0.118614,0.61649 0.205677,0.61649 0.118486,0 0.237098,-0.14292 0.290222,-0.21613 v 10e-4 c 0,0 0.0026,-0.004 0.0088,-0.0142 0.01268,-0.0177 0.01893,-0.0284 0.01893,-0.0284 v -0.004 c 0.04795,-0.0768 0.152681,-0.25272 0.310283,-0.54325 0.204416,-0.37557 0.399873,-0.84442 0.399873,-0.84442 a 2.5393007,2.3766557 0 0 0 0.07825,0.30469 c 0.03533,0.1122 0.109782,0.23502 0.169085,0.35431 -0.04795,0.0614 -0.07696,0.0968 -0.07696,0.0968 a 0.00391166,0.00366111 0 0 0 0.0013,0.002 c -0.03786,0.0472 -0.08075,0.098 -0.124924,0.14762 -0.161387,0.17951 -0.35331,0.38501 -0.378547,0.44406 -0.03028,0.0697 -0.02271,0.12165 0.03534,0.1618 0.0429,0.0307 0.118614,0.0354 0.197981,0.0295 0.145109,-0.009 0.247317,-0.0426 0.296528,-0.0637 a 1.0372218,0.97078655 0 0 0 0.254764,-0.12519 c 0.157728,-0.10865 0.253627,-0.26453 0.244793,-0.47003 -0.005,-0.11337 -0.04416,-0.22676 -0.0921,-0.33305 0.01382,-0.0188 0.02902,-0.039 0.0429,-0.059 0.249715,-0.34131 0.442774,-0.71593 0.442774,-0.71593 a 2.5393007,2.3766557 0 0 0 0.07823,0.3047 c 0.03028,0.0957 0.08946,0.20077 0.143721,0.30352 -0.234574,0.17833 -0.379682,0.385 -0.430156,0.52082 -0.09337,0.25156 -0.0202,0.36492 0.117346,0.39091 0.06184,0.0118 0.150157,-0.0154 0.215771,-0.0413 a 1.0026477,0.938427 0 0 0 0.272428,-0.13109 c 0.15773,-0.10866 0.310284,-0.261 0.300189,-0.46768 -0.0038,-0.0933 -0.03154,-0.18659 -0.06813,-0.27635 0.198107,-0.0779 0.455394,-0.12047 0.78347,-0.085 0.702584,0.0768 0.840123,0.48776 0.813626,0.65901 -0.0265,0.17124 -0.174133,0.2669 -0.223345,0.29524 -0.04921,0.0284 -0.06436,0.039 -0.06057,0.0602 0.0063,0.0307 0.02902,0.0295 0.07067,0.0224 0.05805,-0.009 0.368327,-0.13935 0.382207,-0.45704 0.0202,-0.40154 -0.392302,-0.84324 -1.123027,-0.8397 z m -5.415509,1.70891 c -0.23205,0.23738 -0.5576,0.32714 -0.697538,0.25155 -0.150157,-0.0817 -0.09085,-0.43106 0.195457,-0.68403 0.174133,-0.15353 0.398612,-0.29525 0.547508,-0.38264 0.03407,-0.0188 0.08329,-0.0472 0.143848,-0.0815 0.01011,-0.006 0.01514,-0.008 0.01514,-0.008 0.0114,-0.007 0.02397,-0.013 0.03659,-0.02 0.104611,0.35902 0.0038,0.67553 -0.241008,0.92472 z m 1.695391,-1.07943 c -0.08075,0.18541 -0.250977,0.65781 -0.354446,0.63302 -0.08833,-0.0213 -0.142588,-0.38146 -0.01766,-0.73577 0.0631,-0.17833 0.196845,-0.39091 0.27634,-0.47358 0.127318,-0.13346 0.267382,-0.17597 0.300189,-0.12282 0.04416,0.0697 -0.153943,0.58341 -0.204416,0.69915 z m 1.400628,0.62593 c -0.03407,0.0166 -0.06561,0.0272 -0.08075,0.0188 -0.0114,-0.006 0.01382,-0.0284 0.01382,-0.0284 0,0 0.175393,-0.17597 0.244794,-0.25628 0.04038,-0.0472 0.08706,-0.10274 0.137416,-0.16416 0,0.006 0.0013,0.0118 0.0013,0.0188 -0.0016,0.2114 -0.218549,0.3543 -0.316971,0.411 z m 1.079872,-0.2303 c -0.02523,-0.0166 -0.02145,-0.072 0.06309,-0.24447 0.03282,-0.0673 0.108387,-0.18069 0.239748,-0.28934 a 0.45652899,0.4272878 0 0 1 0.02397,0.12755 c -0.0013,0.26573 -0.204415,0.36493 -0.326687,0.40626 z"
       id="path2706"
       style="fill:#f38ba8;fill-opacity:0.99772;stroke-width:0.0122075" /><path
       d="m 88.977815,109.12726 h -4.454443 c -0.335349,0 -0.607425,0.27208 -0.607425,0.60742 v 4.45445 c 0,0.33535 0.272076,0.60742 0.607425,0.60742 h 4.454443 c 0.335348,0 0.607423,-0.27207 0.607423,-0.60742 v -4.45445 c 0,-0.33534 -0.272075,-0.60742 -0.607423,-0.60742 z m -1.97666,4.42154 c 0,0.55175 -0.32396,0.80358 -0.795978,0.80358 -0.426463,0 -0.673229,-0.2202 -0.799775,-0.48721 l 0.434055,-0.26195 c 0.08352,0.14806 0.159448,0.27334 0.342941,0.27334 0.174634,0 0.285995,-0.0683 0.285995,-0.33535 v -1.81088 h 0.532762 z m 1.260405,0.80358 c -0.494797,0 -0.81496,-0.23538 -0.970613,-0.54416 l 0.434055,-0.25056 c 0.113892,0.18602 0.263218,0.32396 0.52517,0.32396 0.220191,0 0.361922,-0.11009 0.361922,-0.26322 0,-0.18222 -0.144263,-0.24676 -0.388498,-0.35433 l -0.132874,-0.0569 c -0.384701,-0.16325 -0.63906,-0.36952 -0.63906,-0.80357 0,-0.39989 0.304977,-0.7036 0.779527,-0.7036 0.339146,0 0.582115,0.11768 0.756749,0.42646 l -0.415073,0.26575 c -0.09111,-0.16325 -0.18982,-0.22779 -0.342942,-0.22779 -0.155651,0 -0.254358,0.0987 -0.254358,0.22779 0,0.15945 0.09871,0.22399 0.327756,0.32396 l 0.132874,0.0569 c 0.453037,0.19361 0.707396,0.3923 0.707396,0.83774 0,0.47835 -0.377109,0.74157 -0.882031,0.74157 z"
       id="path559"
       style="fill:#f9e2af;fill-opacity:1;stroke-width:0.0126547" /><path
       d="m 113.79334,112.8639 a 0.36827107,0.34268656 0 1 1 0.36827,-0.34268 0.36827107,0.34268656 0 0 1 -0.36827,0.34268 m -4.06786,0 a 0.36827107,0.34268656 0 1 1 0.36827,-0.34268 0.36827107,0.34268656 0 0 1 -0.36827,0.34268 m 4.19982,-2.06297 0.73562,-1.18512 a 0.15344627,0.14278607 0 1 0 -0.26499,-0.14279 v 0 l -0.74483,1.2004 a 4.6225693,4.30143 0 0 0 -3.78337,0 l -0.74484,-1.2004 a 0.15344627,0.14278607 0 1 0 -0.265,0.14279 v 0 l 0.73562,1.18512 c -1.26316,0.63925 -2.12691,1.82909 -2.25335,3.23482 h 8.8385 c -0.12643,-1.40573 -0.99034,-2.59557 -2.25336,-3.23482"
       id="path2780"
       style="fill:#b4befe;fill-opacity:0.996078;stroke-width:0.0148019" /><path
       d="m 140.79889,112.21838 -0.32106,-0.19675 c -0.002,-0.029 -0.006,-0.0572 -0.008,-0.0857 l 0.27543,-0.25486 a 0.1081418,0.10704063 0 0 0 -0.0358,-0.17841 l -0.35313,-0.13111 c -0.008,-0.0274 -0.0158,-0.055 -0.0246,-0.0822 l 0.22069,-0.30335 a 0.1081418,0.10704063 0 0 0 -0.0706,-0.16806 l -0.374,-0.0605 c -0.0132,-0.0251 -0.0264,-0.0502 -0.0402,-0.0749 l 0.15714,-0.34109 a 0.1081418,0.10704063 0 0 0 -0.10235,-0.1513 l -0.37989,0.0133 q -0.0265,-0.0324 -0.0532,-0.0641 l 0.0865,-0.36642 a 0.10828892,0.10718626 0 0 0 -0.13007,-0.12875 l -0.37019,0.0864 q -0.032,-0.0265 -0.0648,-0.0526 l 0.0135,-0.37604 A 0.1081418,0.10704063 0 0 0 139.07138,109.2 l -0.34457,0.15628 c -0.0249,-0.0139 -0.0505,-0.0267 -0.0758,-0.0397 l -0.0611,-0.3702 a 0.1081418,0.10704063 0 0 0 -0.16977,-0.0697 l -0.30692,0.21801 c -0.0274,-0.01 -0.0552,-0.0165 -0.083,-0.0244 l -0.13248,-0.34953 a 0.1081418,0.10704063 0 0 0 -0.18022,-0.0355 l -0.25749,0.27262 c -0.0287,-0.004 -0.0576,-0.005 -0.0865,-0.008 l -0.19832,-0.31806 a 0.1081418,0.10704063 0 0 0 -0.18392,0 l -0.19877,0.31776 c -0.0293,0.002 -0.0578,0.004 -0.0865,0.008 l -0.25748,-0.27262 a 0.1081418,0.10704063 0 0 0 -0.18024,0.0355 l -0.13246,0.34951 c -0.0278,0.008 -0.0558,0.0157 -0.0833,0.0245 l -0.30633,-0.21845 a 0.1081418,0.10704063 0 0 0 -0.1698,0.0697 l -0.0611,0.37006 c -0.0255,0.0131 -0.0507,0.0262 -0.076,0.0397 l -0.3443,-0.1548 a 0.1081418,0.10704063 0 0 0 -0.15287,0.10193 l 0.0136,0.37588 c -0.0219,0.0173 -0.0441,0.0347 -0.0651,0.0526 l -0.37004,-0.0869 a 0.10828892,0.10718626 0 0 0 -0.13007,0.12874 l 0.0873,0.36641 c -0.0181,0.0212 -0.0357,0.0428 -0.0533,0.0643 l -0.37975,-0.0133 a 0.10917171,0.10806006 0 0 0 -0.0937,0.0474 0.1081418,0.10704063 0 0 0 -0.008,0.10385 l 0.15684,0.34092 c -0.0138,0.0247 -0.0269,0.05 -0.0403,0.0751 l -0.37386,0.0603 a 0.1081418,0.10704063 0 0 0 -0.0706,0.16807 l 0.22069,0.3032 c -0.009,0.0272 -0.0165,0.055 -0.0247,0.0825 l -0.3531,0.13112 a 0.1081418,0.10704063 0 0 0 -0.0359,0.1784 l 0.27543,0.25486 c -0.002,0.0285 -0.006,0.0569 -0.008,0.0856 l -0.32163,0.1966 a 0.1081418,0.10704063 0 0 0 0,0.18204 l 0.32105,0.19675 c 0.002,0.029 0.005,0.0571 0.008,0.0854 l -0.27542,0.25486 a 0.1081418,0.10704063 0 0 0 0.0358,0.17841 l 0.35311,0.13112 c 0.008,0.0275 0.0158,0.0551 0.0247,0.0823 l -0.2207,0.30335 a 0.1081418,0.10704063 0 0 0 0.0705,0.16806 l 0.37401,0.0605 c 0.0132,0.025 0.0264,0.0502 0.0403,0.0748 l -0.1564,0.34122 a 0.1081418,0.10704063 0 0 0 0.008,0.10385 0.1049049,0.10383669 0 0 0 0.0937,0.0474 l 0.38004,-0.0133 q 0.026,0.0324 0.0528,0.0642 l -0.0873,0.36641 a 0.10828892,0.10718626 0 0 0 0.13008,0.12875 l 0.37018,-0.0864 q 0.032,0.0265 0.065,0.0526 l -0.0136,0.37601 a 0.1081418,0.10704063 0 0 0 0.15289,0.10122 l 0.34471,-0.15554 c 0.0248,0.0137 0.0502,0.0265 0.0756,0.0397 l 0.0611,0.37021 a 0.10799466,0.10689499 0 0 0 0.16979,0.0696 l 0.30648,-0.21845 c 0.0274,0.01 0.0553,0.0165 0.0832,0.0245 l 0.13246,0.34952 a 0.10828892,0.10718626 0 0 0 0.18024,0.0355 l 0.25747,-0.27262 c 0.0287,0.004 0.0577,0.005 0.0865,0.008 l 0.19877,0.31778 a 0.1081418,0.10704063 0 0 0 0.18391,0 l 0.19877,-0.31778 c 0.0296,-0.002 0.0578,-0.004 0.0865,-0.008 l 0.25748,0.27278 a 0.10828892,0.10718626 0 0 0 0.18023,-0.0355 l 0.13247,-0.34952 c 0.0278,-0.008 0.0557,-0.0157 0.0832,-0.0245 l 0.30632,0.21845 a 0.10799466,0.10689499 0 0 0 0.16979,-0.0695 l 0.0611,-0.3702 c 0.0253,-0.0132 0.0507,-0.0262 0.0758,-0.0397 l 0.34458,0.15553 a 0.1081418,0.10704063 0 0 0 0.15287,-0.10122 l -0.0135,-0.37602 q 0.0327,-0.026 0.0648,-0.0526 l 0.37004,0.0864 a 0.10828892,0.10718626 0 0 0 0.13008,-0.12875 l -0.0873,-0.36639 q 0.0269,-0.0316 0.0532,-0.0642 l 0.3799,0.0133 a 0.10637622,0.10529303 0 0 0 0.0937,-0.0474 0.1081418,0.10704063 0 0 0 0.008,-0.10385 l -0.15714,-0.34107 c 0.0138,-0.0249 0.0269,-0.05 0.0403,-0.0749 l 0.37401,-0.0603 a 0.1081418,0.10704063 0 0 0 0.0705,-0.16806 l -0.22069,-0.30334 c 0.009,-0.0272 0.0168,-0.0547 0.0246,-0.0823 l 0.35312,-0.13112 a 0.1081418,0.10704063 0 0 0 0.0358,-0.1784 l -0.27542,-0.25486 c 0.002,-0.0284 0.005,-0.057 0.008,-0.0854 l 0.32104,-0.19675 a 0.1081418,0.10704063 0 0 0 0,-0.18204 z m -2.2217,1.87984 a 0.20466018,0.20257619 0 0 0 -0.24306,0.15554 l -0.11239,0.51947 a 2.7588663,2.7307737 0 0 1 -2.30055,-0.0108 l -0.1124,-0.51933 a 0.20407166,0.20199366 0 0 0 -0.24218,-0.15554 l -0.46361,0.0985 a 2.7569536,2.7288806 0 0 1 -0.23923,-0.27975 h 2.25362 c 0.0253,0 0.0426,-0.004 0.0426,-0.0279 v -0.78919 c 0,-0.0228 -0.0173,-0.0278 -0.0426,-0.0278 h -0.65961 l 5.9e-4,-0.50026 h 0.71329 c 0.0649,0 0.34812,0.0186 0.4383,0.37675 0.0281,0.10995 0.0908,0.46808 0.1333,0.58255 0.0426,0.12849 0.21482,0.38534 0.39873,0.38534 h 1.16308 a 2.7557765,2.7277153 0 0 1 -0.25511,0.29257 z m 0.37917,0.50228 a 0.22422869,0.22194545 0 1 1 -0.22498,-0.22194 h 0.007 a 0.22408156,0.22179982 0 0 1 0.21776,0.22194 z m -3.31958,-0.01 a 0.22422869,0.22194545 0 1 1 -0.22438,-0.22209 h 0.007 a 0.22437583,0.22209108 0 0 1 0.21703,0.22209 z m -1.29624,-2.59942 0.48304,-0.21262 a 0.20421879,0.2021393 0 0 0 0.10388,-0.26694 l -0.0996,-0.22166 h 0.39079 v 1.74366 h -0.78863 a 2.7609261,2.7328126 0 0 1 -0.0895,-1.04244 z m -0.16567,-0.52515 a 0.22422869,0.22194545 0 0 1 0.22408,-0.22209 h 0.007 a 0.22422869,0.22194545 0 1 1 -0.23056,0.22193 z m 2.28289,0.35666 5.9e-4,-0.51439 h 0.93075 c 0.0482,0 0.33943,0.0549 0.33943,0.27117 0,0.179 -0.2235,0.24322 -0.40726,0.24322 z m 2.72974,1.2252 c -0.14418,0.0165 -0.30353,-0.06 -0.32371,-0.14694 -0.085,-0.47316 -0.22642,-0.57378 -0.44976,-0.74856 0.27748,-0.17402 0.56587,-0.43165 0.56587,-0.77564 0,-0.37166 -0.25734,-0.60568 -0.43258,-0.72059 -0.24659,-0.16021 -0.51907,-0.19268 -0.59249,-0.19268 h -2.92645 a 2.7585722,2.7304825 0 0 1 1.54326,-0.862 l 0.34533,0.35827 a 0.20333599,0.20126551 0 0 0 0.28837,0.006 l 0.38636,-0.36408 a 2.7588663,2.7307737 0 0 1 1.88875,1.33152 l -0.26485,0.59085 a 0.20598436,0.2038869 0 0 0 0.10436,0.26694 l 0.50893,0.22326 a 2.7531282,2.725094 0 0 1 0.006,0.47388 h -0.28368 c -0.0281,0 -0.0396,0.0185 -0.0396,0.0455 v 0.12849 c -2.7e-4,0.30219 -0.17228,0.3689 -0.32398,0.38533 z m -2.33939,-3.58986 a 0.22422869,0.22194545 0 0 1 0.22378,-0.22151 h 0.007 a 0.22422869,0.22194545 0 1 1 -0.23042,0.22151 z m 2.89612,2.2397 a 0.22422869,0.22194545 0 1 1 0,-0.44389 h 0.007 a 0.22425635,0.22197283 0 0 1 -0.007,0.44389 z"
       id="path4810"
       style="fill:#dea584;fill-opacity:1;stroke-width:0.014638" /><path
       d="m 165.58341,110.87402 c -0.1185,-0.45839 -0.34295,-0.80403 -0.82122,-0.80403 h -0.6167 v 0.70317 c 0,0.54592 -0.47983,1.00581 -1.02731,1.00581 h -1.64248 c -0.44906,0 -0.8212,0.37086 -0.8212,0.80553 v 1.51018 c 0,0.43023 0.38753,0.68242 0.8212,0.80555 0.51981,0.14687 1.01963,0.17356 1.64248,0 0.41369,-0.11571 0.82122,-0.34862 0.82122,-0.80555 v -0.60378 h -1.64093 v -0.20175 h 2.46372 c 0.47827,0 0.65513,-0.32191 0.82122,-0.80405 0.17227,-0.49697 0.16462,-0.97467 0,-1.61108 z m -2.3622,3.01891 c 0.17064,0 0.30912,0.135 0.30912,0.30116 0,0.16763 -0.13836,0.30262 -0.30912,0.30262 -0.16917,0 -0.3091,-0.13647 -0.3091,-0.30262 0.002,-0.16764 0.13999,-0.30116 0.3091,-0.30116 z m -1.82085,-2.31276 h 1.64247 c 0.45673,0 0.82123,-0.36344 0.82123,-0.80553 v -1.51168 c 0,-0.43021 -0.37526,-0.75213 -0.82123,-0.82482 -0.55057,-0.0875 -1.14881,-0.0831 -1.64247,8.3e-4 -0.69514,0.11868 -0.82123,0.36641 -0.82123,0.82482 v 0.60378 h 1.64398 v 0.20175 h -2.26067 c -0.47827,0 -0.89659,0.27742 -1.02732,0.80405 -0.15077,0.60378 -0.15697,0.98058 0,1.61108 0.11679,0.46878 0.39523,0.80405 0.87353,0.80405 h 0.56439 v -0.72397 c 0,-0.52364 0.46907,-0.98501 1.02732,-0.98501 z m -0.10294,-2.11545 c -0.17063,0 -0.30912,-0.135 -0.30912,-0.30116 0.002,-0.16763 0.13836,-0.30263 0.30912,-0.30263 0.16918,0 0.3091,0.13647 0.3091,0.30263 0,0.16616 -0.13836,0.30116 -0.3091,0.30116 z"
       id="path6012"
       style="fill:#89b4fa;fill-opacity:1;stroke-width:0.0151044" /><rect
       style="fill:#313244;fill-opacity:0.69695741;stroke-width:0.264999"
       id="rect13707"
       width="101.84201"
       height="33.870377"
       x="20.259768"
       y="149.98422"
       ry="4.9701743" /><rect
       style="fill:#414559;fill-opacity:0.18529731;stroke-width:0.120598"
       id="rect13707-6"
       width="26.925869"
       height="26.531778"
       x="24.089664"
       y="153.16661"
       ry="3.893301" /><g
       style="fill:none;stroke:#f0f6fc;stroke-width:2;stroke-linecap:round;stroke-linejoin:round"
       id="g1368"
       transform="matrix(0.51876932,0,0,0.56108067,30.795043,160.16092)"><path
         d="M 9,19 C 4,20.5 4,16.5 2,16 m 14,6 v -3.87 a 3.37,3.37 0 0 0 -0.94,-2.61 c 3.14,-0.35 6.44,-1.54 6.44,-7 A 5.44,5.44 0 0 0 20,4.77 5.07,5.07 0 0 0 19.91,1 c 0,0 -1.18,-0.35 -3.91,1.48 a 13.38,13.38 0 0 0 -7,0 C 6.27,0.65 5.09,1 5.09,1 A 5.07,5.07 0 0 0 5,4.77 5.44,5.44 0 0 0 3.5,8.55 c 0,5.42 3.3,6.61 6.44,7 A 3.37,3.37 0 0 0 9,18.13 V 22"
         id="path1359" /></g><text
       xml:space="preserve"
       style="font-weight:900;font-size:3.175px;font-family:'Source Code Pro';-inkscape-font-specification:'Source Code Pro, Heavy';fill:#f0f6fc;fill-opacity:1;stroke-width:0.264999"
       x="55.751274"
       y="157.76318"
       id="text1788"><tspan
         id="tspan1786"
         style="font-size:3.175px;fill:#f0f6fc;fill-opacity:1;stroke-width:0.265"
         x="55.751274"
         y="157.76318">gitshell</tspan></text><text
       xml:space="preserve"
       transform="matrix(0.26458333,0,0,0.26458333,-0.94067041,0.55020576)"
       id="text4126"
       style="font-weight:900;font-size:8px;line-height:1.6;font-family:'Source Code Pro';-inkscape-font-specification:'Source Code Pro, Heavy';white-space:pre;shape-inside:url(#rect4128);display:inline;fill:#f0f6fc;fill-opacity:1;stroke-width:1.00157"><tspan
         x="213.81055"
         y="614.73203"
         id="tspan7055"><tspan
           style="font-weight:500;-inkscape-font-specification:'Source Code Pro Medium'"
           id="tspan7053">Get your github contributions right in your </tspan></tspan><tspan
         x="213.81055"
         y="627.53202"
         id="tspan7059"><tspan
           style="font-weight:500;-inkscape-font-specification:'Source Code Pro Medium'"
           id="tspan7057">terminal. Customize the output according to your </tspan></tspan><tspan
         x="213.81055"
         y="640.33201"
         id="tspan7063"><tspan
           style="font-weight:500;-inkscape-font-specification:'Source Code Pro Medium'"
           id="tspan7061">needs, add plugins to customize your experience </tspan></tspan><tspan
         x="213.81055"
         y="653.13199"
         id="tspan7067"><tspan
           style="font-weight:500;-inkscape-font-specification:'Source Code Pro Medium'"
           id="tspan7065">even more ^-^</tspan></tspan></text><circle
       style="fill:#dea584;fill-opacity:1;stroke-width:0.264999"
       id="path5696"
       cx="56.160912"
       cy="177.58496"
       r="0.69999999" /><text
       xml:space="preserve"
       style="font-style:normal;font-variant:normal;font-weight:500;font-stretch:normal;font-size:1.41111px;font-family:'Source Code Pro';-inkscape-font-specification:'Source Code Pro Medium';fill:#dea584;fill-opacity:1;stroke-width:0.264999"
       x="57.393063"
       y="178.00677"
       id="text6582"><tspan
         id="tspan6580"
         style="font-size:1.41111px;fill:#f0f6fc;fill-opacity:1;stroke-width:0.265"
         x="57.393063"
         y="178.00677">Rust</tspan></text></g></svg>
